<svg xmlns="http://www.w3.org/2000/svg" viewBox="0 0 800 215.301"><defs><style>.cls-1{fill:#0c304a;}.cls-2{fill:#f74902;}.cls-3{fill:#7df9ff;}.cls-4{fill:#dbf0f5;}.cls-5{fill:#d8ffff;}.cls-6{fill:#9e2c1d;}</style></defs><g id="Layer_1" data-name="Layer 1"><path class="cls-1" d="M107.24.171.17,107.241a.578.578,0,0,0,0,.819L107.24,215.13a.579.579,0,0,0,.989-.409V161.338a2.394,2.394,0,0,0-.7-1.693l-50.3-50.3a2.394,2.394,0,0,1,0-3.386l50.3-50.3a2.4,2.4,0,0,0,.7-1.694V.581A.579.579,0,0,0,107.24.171Z"/><path class="cls-1" d="M107.24.171.17,107.241a.578.578,0,0,0,0,.819L107.24,215.13a.579.579,0,0,0,.989-.409V161.338a2.394,2.394,0,0,0-.7-1.693l-50.3-50.3a2.394,2.394,0,0,1,0-3.386l50.3-50.3a2.4,2.4,0,0,0,.7-1.694V.581A.579.579,0,0,0,107.24.171Z"/><path class="cls-2" d="M102.911,12.1V36.83c-4.9-1.941-10.737-4.668-17.581-7.152Z"/><path class="cls-3" d="M64.753,50.254a55.372,55.372,0,0,0,13.036-3.167c2.392-.893,15.656-9.927,15.656-9.927.76-.243,4.248-3.309,9.466-4.1V53.117l-8.919,8.92c-7.782,3.25-9.558,2.137-14.585,5.305-9.522-1.941-25.334.436-35.456,3.715Z"/><path class="cls-4" d="M86.949,69.079q-2.4-.618-4.882-1.17,2.48.528,4.9,1.154Z"/><path class="cls-5" d="M85.713,70.315c-1.61-.415-18.48-6.266-19.371-6.448,10.791-6.9,21.807-5.748,28.459-2.64Z"/><path class="cls-1" d="M79.407,67.342"/><path class="cls-6" d="M31.135,83.872c15.083-4.661,32.737-4.835,40.652.369L48.182,107.846S37.05,109.389,30.3,109.9c-6.045.461-12.3,1.217-18.762,2.32l-4.378-4.377Z"/><path class="cls-2" d="M27.121,105.846a48.678,48.678,0,0,1,21.061,2L80.9,140.56c-9.641,3.292-20.085,6.981-30.83,10.191L11.539,112.223C17.179,108.069,21.108,106.616,27.121,105.846Z"/><path class="cls-3" d="M81.649,141.312,66.8,126.466s-20.584-11.172-38.251,2.769L52.96,153.644Z"/><path class="cls-6" d="M93.707,153.371l9.2,9.2v25.741c-5.412-2.117-10.738-4.267-15.822-6-2.659-.9-5.252-1.694-7.756-2.3l-19.4-19.4C63.924,150.637,82.174,148.482,93.707,153.371Z"/><path class="cls-2" d="M87.709,171.546c5.3.849,11.671,4,15.2,7.912V203.6L70.919,171.6C73.669,170.759,81.046,170.479,87.709,171.546Z"/><path class="cls-1" d="M85.33,29.678c5.809-3.874,12.51-4.931,17.581-3.379V35.74A28.237,28.237,0,0,0,89.73,41.267c-6.047,4.675-8.039,6.3-12.321,7.773a33.379,33.379,0,0,1-12.656,1.214Z"/><path class="cls-1" d="M67.916,148.653c7.607-2.461,4.594-8.836,12.981-8.093l12.81,12.811c-2.088,7.051-15.257,9.109-33.772,7.248l-9.868-9.868C50.067,146.45,64.984,149.6,67.916,148.653Z"/><path class="cls-5" d="M44.116,144.8l12.616,12.616s21.559,1.438,27.153-13.868l-6.667-6.666S65.828,149.918,44.116,144.8Z"/><path class="cls-1" d="M44.313,70.694c8.657-6.15,24.033-8.626,33.415-6.15,3.891,1.026,7.3,3.817,8.209,5.548L64.309,91.72c-4.625-9.222-31.338-7.136-46.365,5.344Z"/><path class="cls-3" d="M102.911,203.6v-9.048s-8.014,1.422-18.249-9.2Z"/><path class="cls-1" d="M691.771.581V53.963a2.4,2.4,0,0,0,.7,1.694l50.3,50.3a2.394,2.394,0,0,1,0,3.386l-50.3,50.3a2.394,2.394,0,0,0-.7,1.693v53.383a.579.579,0,0,0,.989.409L799.83,108.06a.578.578,0,0,0,0-.819L692.76.171A.579.579,0,0,0,691.771.581Z"/><path class="cls-1" d="M691.771.581V53.963a2.4,2.4,0,0,0,.7,1.694l50.3,50.3a2.394,2.394,0,0,1,0,3.386l-50.3,50.3a2.394,2.394,0,0,0-.7,1.693v53.383a.579.579,0,0,0,.989.409L799.83,108.06a.578.578,0,0,0,0-.819L692.76.171A.579.579,0,0,0,691.771.581Z"/><path class="cls-2" d="M697.28,12.1V36.83c4.9-1.941,10.736-4.668,17.581-7.152Z"/><path class="cls-3" d="M735.437,50.254A55.365,55.365,0,0,1,722.4,47.087c-2.392-.893-15.657-9.927-15.657-9.927-.759-.243-4.248-3.309-9.465-4.1V53.117l8.919,8.92c7.782,3.25,9.557,2.137,14.584,5.305,9.523-1.941,25.335.436,35.457,3.715Z"/><path class="cls-4" d="M713.242,69.079q2.4-.618,4.882-1.17-2.48.528-4.9,1.154Z"/><path class="cls-5" d="M714.478,70.315c1.61-.415,18.479-6.266,19.371-6.448-10.791-6.9-21.807-5.748-28.459-2.64Z"/><path class="cls-1" d="M720.783,67.342"/><path class="cls-6" d="M769.056,83.872c-15.083-4.661-32.738-4.835-40.652.369l23.6,23.605s11.133,1.543,17.882,2.057c6.045.461,12.3,1.217,18.762,2.32l4.377-4.377Z"/><path class="cls-2" d="M773.07,105.846a48.685,48.685,0,0,0-21.062,2L719.294,140.56c9.641,3.292,20.084,6.981,30.83,10.191l38.528-38.528C783.012,108.069,779.083,106.616,773.07,105.846Z"/><path class="cls-3" d="M718.542,141.312l14.846-14.846s20.585-11.172,38.252,2.769l-24.409,24.409Z"/><path class="cls-6" d="M706.483,153.371l-9.2,9.2v25.741c5.411-2.117,10.737-4.267,15.822-6,2.659-.9,5.252-1.694,7.756-2.3l19.4-19.4C736.267,150.637,718.017,148.482,706.483,153.371Z"/><path class="cls-2" d="M712.482,171.546c-5.3.849-11.671,4-15.2,7.912V203.6L729.271,171.6C726.522,170.759,719.144,170.479,712.482,171.546Z"/><path class="cls-1" d="M714.861,29.678c-5.809-3.874-12.51-4.931-17.581-3.379V35.74a28.237,28.237,0,0,1,13.181,5.527c6.047,4.675,8.039,6.3,12.32,7.773a33.381,33.381,0,0,0,12.656,1.214Z"/><path class="cls-1" d="M732.275,148.653c-7.607-2.461-4.594-8.836-12.981-8.093l-12.811,12.811c2.089,7.051,15.257,9.109,33.773,7.248l9.868-9.868C750.124,146.45,735.207,149.6,732.275,148.653Z"/><path class="cls-5" d="M756.075,144.8l-12.616,12.616s-21.559,1.438-27.153-13.868l6.666-6.666S734.362,149.918,756.075,144.8Z"/><path class="cls-1" d="M755.878,70.694c-8.658-6.15-24.033-8.626-33.415-6.15-3.891,1.026-7.3,3.817-8.209,5.548L735.882,91.72c4.625-9.222,31.338-7.136,46.365,5.344Z"/><path class="cls-3" d="M697.28,203.6v-9.048s8.013,1.422,18.248-9.2Z"/></g><g id="Layer_3" data-name="Layer 3"><path class="cls-2" d="M325.687,120.067H297.83l-8.367,20.915H285.1l26.7-65.95h.357l26.7,65.95h-4.895Zm-1.6-4.095L311.892,84.911l-12.46,31.061Z"/><path class="cls-2" d="M381.044,107.473a17.393,17.393,0,0,1,6.364,6.5,18.47,18.47,0,0,1,2.358,9.3,19.217,19.217,0,0,1-2.447,9.879,16.45,16.45,0,0,1-6.542,6.363,18.994,18.994,0,0,1-9.078,2.181,18.411,18.411,0,0,1-8.855-2.226,16.933,16.933,0,0,1-6.453-5.874v7.388h-4.183V73.341h4.183v39.783a16.486,16.486,0,0,1,6.542-5.829,19.8,19.8,0,0,1,9.211-2.181A17.217,17.217,0,0,1,381.044,107.473Zm.49,26.477a14.714,14.714,0,0,0,3.96-10.679,15.322,15.322,0,0,0-1.825-7.388,13.546,13.546,0,0,0-5.161-5.34,14.6,14.6,0,0,0-7.521-1.958,14.831,14.831,0,0,0-9.568,3.249,13.675,13.675,0,0,0-5.028,8.322v5.428a12.027,12.027,0,0,0,2.314,6.142,15.379,15.379,0,0,0,5.251,4.583,14.524,14.524,0,0,0,7.031,1.735A14,14,0,0,0,381.534,133.95Z"/><path class="cls-2" d="M402.181,114.148a17.916,17.916,0,0,1,6.719-6.675,19.4,19.4,0,0,1,18.869,0,17.6,17.6,0,0,1,6.674,6.675,18.325,18.325,0,0,1,2.4,9.212,18.111,18.111,0,0,1-9.122,15.886,18.571,18.571,0,0,1-9.479,2.448,19.117,19.117,0,0,1-9.478-2.359,17.114,17.114,0,0,1-6.631-6.542,18.589,18.589,0,0,1-2.4-9.433A18.054,18.054,0,0,1,402.181,114.148Zm3.649,16.687a14.25,14.25,0,0,0,5.206,5.34,14.25,14.25,0,0,0,14.418,0,14.275,14.275,0,0,0,5.207-5.34,14.75,14.75,0,0,0,1.913-7.387,15,15,0,0,0-1.913-7.431,14.211,14.211,0,0,0-5.207-5.385,13.864,13.864,0,0,0-7.209-1.958,13.337,13.337,0,0,0-7.3,2.092,14.966,14.966,0,0,0-5.162,5.473,15.032,15.032,0,0,0,.045,14.6Z"/><path class="cls-2" d="M479.655,106.182v34.8h-3.738l-.267-7.388a13.54,13.54,0,0,1-5.785,6.008,17.207,17.207,0,0,1-8.721,2.358,10.715,10.715,0,0,1-7.788-2.892,10.6,10.6,0,0,1-3.16-7.521V106.182h4.183V130.3A8.536,8.536,0,0,0,456.6,136a8.438,8.438,0,0,0,5.963,2.315,12.2,12.2,0,0,0,6.364-1.781,13.225,13.225,0,0,0,4.761-4.9,13.744,13.744,0,0,0,1.78-6.941V106.182Z"/><path class="cls-2" d="M504.129,90.874v15.753H514.9v3.382H504.129v30.973h-4.273V110.009H492.47v-3.382h7.386V90.874Z"/></g></svg>