<?xml version="1.0" encoding="utf-8"?>
<!-- Generator: Adobe Illustrator 25.0.0, SVG Export Plug-In . SVG Version: 6.00 Build 0)  -->
<svg version="1.1" id="Layer_1" xmlns="http://www.w3.org/2000/svg" xmlns:xlink="http://www.w3.org/1999/xlink" x="0px" y="0px"
	 viewBox="0 0 653.2 1080.1" style="enable-background:new 0 0 653.2 1080.1;" xml:space="preserve">
<style type="text/css">
	.st0{fill:#0C304A;}
	.st1{fill:#7DF9FF;}
	.st2{fill:#9E2C1D;}
	.st3{fill:#F74902;}
</style>
<path class="st0" d="M-23.7,0c0,0,12,2.3,23.3,12.2c91.7,76.9,101.6,239.6,101.6,239.6c2.2,19.4,4.8,37.2,7.9,53.6
	c1.1,5.8,2.2,11.5,3.4,17c4.5,21.4,10.7,42.5,18.5,63c17.7,45.7,41.1,75.7,68.6,100.9c3.5,3.2,7.1,6.4,10.8,9.5l0,0
	c23.1,19.5,48.8,36.8,76.4,57.5c16.1,12.2,32.9,25.5,50.1,41.3c41.9,38.2,85.4,89.2,111.9,143.3c41.4,84.4,52,144.4,65.4,193.7
	c7.9,29.3,16.8,54.8,33.7,79.2c25.3,36.6,63.5,54.4,94,64.8c1.4,0.5,1.4,1.2,2.8,1.7c2.2,1.1,2.6,1.5,8.4,2.9H-23.7V0z"/>
<path class="st1" d="M261.1,457.1c-24.6-7.5-48.4-17.8-70.8-30.5c-0.1-1.9-0.3-3.9-0.4-5.9c-2.1-40.4,5.9-70.4,1.5-121.5
	c-0.1-0.9-0.2-1.9-0.3-2.8c21.5,6.1,42.7,18.3,69.8,32.1C399.6,399.8,494.4,493,531.1,664c12.5,58.2,10.2,100.8,9.6,146.1l0,0
	C535.2,639.8,444.2,512.5,261.1,457.1z"/>
<path class="st2" d="M191.4,299.3c-0.1-0.9-0.2-1.9-0.3-2.8c-0.3-0.1-0.7-0.2-1-0.3c0,0,0,0,0,0c0.3,0.1,0.7,0.2,1,0.3
	C179.6,170.9,119.6,95.2,26.3,31.4C16.5,24.7,8.2,17.8,0,12.5c89.2,83,101.3,240.3,101.3,240.3c2.2,19.4,4.8,37.2,7.9,53.6
	c0,0,0,0,0,0c1.1,5.8,2.2,11.5,3.4,17c4.5,21.4,10.7,42.5,18.5,63c18.6,15,38.4,28.5,59.2,40.2c-0.1-1.9-0.2-3.9-0.4-5.9
	C187.8,380.4,195.8,350.4,191.4,299.3z"/>
<path class="st3" d="M540.7,810.4c0-0.1,0-0.2,0-0.3c-5.5-170.3-96.5-297.6-279.6-353c-24.6-7.5-70.8-30.5-70.8-30.5
	c-20.8-11.8-40.6-25.2-59.2-40.2c17.7,45.7,41.1,75.7,68.6,100.8c0,0,0,0,0,0c3.5,3.2,7.1,6.4,10.8,9.5
	c23.1,19.5,48.8,36.8,76.4,57.5c16.1,12.2,32.9,25.5,50.1,41.3c41.9,38.2,85.4,89.2,111.9,143.3c41.4,84.4,52,144.4,65.4,193.7
	c0,0,0,0,0,0c7.9,29.3,16.8,54.8,33.7,79.2c26.5,38.4,67.1,56,98.3,66.2C574.9,1033.5,545.8,965.7,540.7,810.4z"/>
<path class="st0" d="M1215.9,1080.4l5.3,0c2-1.1,3.9-2.3,5.8-3.5C1223.1,1078.2,1219.4,1079.3,1215.9,1080.4z"/>
</svg>
