<svg xmlns="http://www.w3.org/2000/svg" viewBox="0 0 1747.19 1080"><defs><style>.cls-1{fill:none;stroke:#fff;stroke-miterlimit:10;}.cls-2{fill:#0c304a;}.cls-3{fill:#9e2c1d;}.cls-4{fill:#f74902;}.cls-5{fill:#cdebf1;}.cls-6{fill:#7df9ff;}.cls-7{fill:#d8ffff;}</style></defs><g id="Layer_2" data-name="Layer 2"><g id="pic"><path class="cls-1" d="M431.821,106.1H363.308C385.928,106.542,408.815,106.577,431.821,106.1Z"/><path class="cls-2" d="M0,0V68.038C18.627,87.491,77.289,98.06,124.245,110.327c45.265,11.826,97.975,9.386,153.6,12.919,28.071,1.783,56.129-.456,85.467.116l187.3-7.554S692.7,90.844,769.873,49.754C870.532-3.839,927.766,7.586,1047.414,35.983q35.391-5.718,73.275-10.667C1200.147,15.034,1265.189,6.663,1317.156,0Z"/><path class="cls-3" d="M785.93,29.542c-181.215,83.389-338.938,83.584-338.938,83.584C219.28,141.113,50.139,89.4,0,68.038v96.54l182.938,14.779s180.37,60.791,625.284-58.09C810.043,120.7,1108.159,21.88,1243.566,0H877.653C840.8,0,810,18.468,785.93,29.542Z"/><path class="cls-4" d="M0,141.915V228.9c523.707,39.079,641.037-32.981,680.453-74.065,0,0-333.446,51.032-578.52,8.781C52.174,155.037,0,141.915,0,141.915Z"/><path class="cls-4" d="M1236.02.122c-51.966,6.663-229.183,0-435.907,117.544-1.74.99,273.761,45.964,283.172,46.986,64.229-16.358,119.212-55.332,119.212-55.332s13.357-3.595,36.158-9.5c21.719-5.626,89.4,33,125.029,24.253,122.412-30.058,270-83.549,383.485-93.349V0Z"/><path class="cls-5" d="M1264.148,153.378H1154.71A1032.624,1032.624,0,0,0,1264.148,153.378Z"/><path class="cls-2" d="M901.45,141.915c84.808-9.144,261.715-173.1,565.224-9.654V234.747l-473.932-30.07S816.641,151.06,901.45,141.915Z"/><path class="cls-6" d="M1451.619,79.062c-52.106,30.3-195.522,169.876-375.893,102.552-12.316-4.6-76.847-24.675-112.974-36.228-28.5-9.116-137.444-43.6-263.357-30.679-134.64,13.821-195,51.773-352.388,91.16C271.037,224.879,57.111,235.856,0,215.3V247.77H0v79.585c4.843-.855,232.281,113.3,390.961,80.155,60.474-12.63,139.413-22.541,400.683-22.541,24.311-10.213,165.494-68.8,194.614-78.015,70.756-22.393,157.794-41.427,232.321-15.041,154.175,54.584,285.614,60.339,379.518,41.48,67.414-13.538,117.413-48.6,149.093-77.861V27.464S1588.71-.665,1451.619,79.062Z"/><path class="cls-7" d="M1466.674,269.147c-42.467,42.776-171.024,143.012-342.42,56.085-10.013-5.079-175.507-147.829-394.21-134.2C552.758,202.08,514.445,271.913,381.653,346.5,259.1,415.33,232.281,440.651,390.961,407.51c60.474-12.63,148.737,31.471,400.683,117.969,24.311-10.213,165.494-68.8,194.614-78.015,70.756-22.393,155-31.518,232.321-15.041,194.664,41.48,285.614,60.339,379.518,41.48,67.414-13.538,117.413-48.6,149.093-77.861V167.975S1580.159,154.835,1466.674,269.147Z"/><path class="cls-2" d="M1598.1,333.393c-104.12,9.113-179.463-49.632-375.847-60.634-78.937-4.422-165.236,11.8-235.992,34.195-29.12,9.216-55.21,19.375-79.52,29.588h0c-41.562,17.461-77.9,35.08-115.094,48.427h0c-70.242,25.2-143.609,35.154-261.27,0-26.845-8.021-55.989-18.382-87.936-31.455,0,0-218.124-106.059-442.438-43.515V454.443C69.744,485.182,106.843,600.9,285.758,625.529c88.528-10.569,295.821-72.234,410.968-54.842,31.385-3.23,63.164-7.743,95.239-13.815,0,0,139.378-45.613,289.479-113.312,46.584-21.01,119.909,46.881,515,130.157,59.222,12.483,113.323-8.948,150.742,0V255.532C1715.51,284.794,1666.6,327.4,1598.1,333.393Z"/><path class="cls-4" d="M121.375,637.409l-29.639.224q9.783,1.9,20.071,4.14C114.949,640.318,118.128,638.863,121.375,637.409Z"/><path class="cls-4" d="M91.736,656.629l29.639-19.22c67.531-30.235,164.342,1.473,276.189-11.88C218.65,600.9,51.057,481.747,0,424.981V648.192C25.944,649.749,56.409,649.763,91.736,656.629Z"/><path class="cls-4" d="M1390.632,392.726c-159.855-59.015-318.377-36.684-462.889,59.779-183.7,122.62-430.834,163.574-462.219,166.8,76.487,11.554,389.707,36.747,477.568,66.279,3.781,1.271,7.564,2.546,11.366,3.854,139.969-1.383,317.835,29.647,543.21,115.5,0,0,3.968,1.167,11.187,3.117,84.551-4.932,169.267-23.87,238.1-68.15V410.544C1628.139,460.953,1523.69,441.847,1390.632,392.726Z"/><path class="cls-3" d="M1746.956,626.491V739.907l-304.291,68.15L800.121,614.512S1194.932,353.768,1746.956,626.491Z"/><path class="cls-6" d="M948.715,645.188C826.267,585.5,696.726,552.557,696.726,552.557c-117.887-27.078-211.958-21.25-305.765-6.4,0,0-135.493,16.472-269.586,91.251-3.107,1.733-26.5,17.764-29.639,19.22C166.787,672.966,269.5,695.28,401.017,741.58c0,0,15.888,8.94,47.011,18.414,25.261,7.69,60.555,15.729,105.6,19.63q8.816-8.643,18.661-17.259C646.6,697.516,952.3,646.936,948.715,645.188Z"/><path class="cls-7" d="M142.031,715.162s230.945-192.709,628.6-13.765l-253.262,119.3Z"/><path class="cls-6" d="M1733.853,712.285c-98.213-64.274-296.4-111.329-557.076,43.545L1582.763,845.1l148.718-45.819S1757.5,727.759,1733.853,712.285Z"/><path class="cls-7" d="M1703.593,789.589s-179.751-188.876-476.428-12.615l301.912,66.382Z"/><path class="cls-2" d="M1489.055,756.961C1286.088,769.97,1044.88,641.69,906.738,619.11,699.213,585.189,410.33,689.82,336.022,754.67c-6.569,5.733,150.663,49.454,144.787,55.215,56.253,4.872,165.818,45.318,251.794,28.523,0,0,432.131,65.564,480.718,49.211,121.139-40.772,229.689-39.455,231.9-38.841,106.61,29.588,212.43,37.619,301.9,19.342.021,0,.064-95.517.064-95.517V662.853C1643.537,763.336,1489.055,756.961,1489.055,756.961Z"/><path class="cls-3" d="M1747.126,876.837h.064v-.014Z"/><path class="cls-3" d="M1323.7,879.99c-34.785-36.634-57.728-54.9-109.293-87.327-96.445-60.647-190.391-85.459-311.529-44.687-48.588,16.353-72.925,35.625-110.807,49.778-61.395,22.939-113.9,25.56-182.761,19.512-104.854-9.209-208.291-57.555-208.291-57.555C152.412,643.659,25.944,645.217,0,643.659V902.74a2322.2,2322.2,0,0,1,237.935-34.746c79.9-7.578,172.355,34.121,269.2,33.829,55.935-.169,117.581,89.5,281.273,70.394,87.858-10.257,222.677-66.945,318.374-45.611q26.257,5.853,51.08,11.525C1198.041,947.307,1342.922,900.236,1323.7,879.99Z"/><path class="cls-4" d="M1224.6,915.633c-23.27-28-70.269-70.538-156.56-49.653-95.294,23.064-215.558,97.1-314.145,86.3-114.543-12.544-171.653-55.2-297.471-115.3,0,0-112.32-66.532-257.548-48.126C123.472,798.41,46.286,826.2.089,860.1v151.837c185.431,17.1,444.806,32.434,687.223,16.983,158.5-10.1,320.413-31.25,473.754-51.673q55.516-7.393,109.372-14.5C1235.565,954.286,1224.6,915.633,1224.6,915.633ZM461.257,930.464q.093-.273.2-.58Q461.351,930.192,461.257,930.464Zm.466-1.337q.306-.864.7-1.935Q462.028,928.262,461.723,929.127Zm1.32-3.6q.337-.894.727-1.893Q463.382,924.637,463.043,925.531Zm.863-2.239q.406-1.037.867-2.179Q464.313,922.255,463.906,923.292Z"/><path class="cls-2" d="M342.871,850.473S142.031,827.07,0,925.2l16.848,78.968,8.434,56.227c137.041-3.085,563.547,19.78,815.77,0,193.619-15.185,346.19-98.976,335.725-142.479-6.248-25.976-257.034,87.066-436.447,58.358C601.56,954.073,528.142,874.256,342.871,850.473Zm59.373,157.645q.093-.273.2-.58Q402.338,1007.846,402.244,1008.118Zm.466-1.337q.306-.864.7-1.935Q403.016,1005.916,402.71,1006.781Zm1.32-3.6q.339-.894.728-1.893Q404.368,1002.291,404.03,1003.185Zm.863-2.239q.406-1.037.867-2.179Q405.3,999.909,404.893,1000.946Z"/><path class="cls-7" d="M1519.534,799.641c-159.556,6.648-249.185,64.793-358.557,111.464h0c-154.845,58.056-318.9,115.8-490.4,117.358C427.681,1030.663,142.031,976.75,0,925.851v104.291l739.3,42.565,966.021-42.565h41.869V863.414C1653.439,790.531,1519.534,799.641,1519.534,799.641Z"/><path class="cls-6" d="M1519.87,865.236c-156.053-9.224-246.332,63.477-358.893,95.728h0c-154.845,58.055-302.252,81.848-473.754,83.4-242.9,2.2-514.649-7.352-687.223-48.712V1080H1747.19V913.272C1642.062,864.434,1519.87,865.236,1519.87,865.236Z"/><path class="cls-6" d="M0,8.443S105.831,43.857,249.167,55.2C395.3,66.754,580.1,53.736,699.4,0H0Z"/></g></g></svg>