<svg xmlns="http://www.w3.org/2000/svg" viewBox="0 0 800 215.301"><defs><style>.cls-1{fill:#0c304a;}.cls-2{fill:#f74902;}.cls-3{fill:#7df9ff;}.cls-4{fill:#dbf0f5;}.cls-5{fill:#d8ffff;}.cls-6{fill:#9e2c1d;}</style></defs><g id="Layer_1" data-name="Layer 1"><path class="cls-1" d="M107.24.171.17,107.241a.578.578,0,0,0,0,.819L107.24,215.13a.579.579,0,0,0,.989-.409V161.338a2.394,2.394,0,0,0-.7-1.693l-50.3-50.3a2.394,2.394,0,0,1,0-3.386l50.3-50.3a2.4,2.4,0,0,0,.7-1.694V.581A.579.579,0,0,0,107.24.171Z"/><path class="cls-1" d="M107.24.171.17,107.241a.578.578,0,0,0,0,.819L107.24,215.13a.579.579,0,0,0,.989-.409V161.338a2.394,2.394,0,0,0-.7-1.693l-50.3-50.3a2.394,2.394,0,0,1,0-3.386l50.3-50.3a2.4,2.4,0,0,0,.7-1.694V.581A.579.579,0,0,0,107.24.171Z"/><path class="cls-2" d="M102.911,12.1V36.83c-4.9-1.941-10.737-4.668-17.581-7.152Z"/><path class="cls-3" d="M64.753,50.254a55.372,55.372,0,0,0,13.036-3.167c2.392-.893,15.656-9.927,15.656-9.927.76-.243,4.248-3.309,9.466-4.1V53.117l-8.919,8.92c-7.782,3.25-9.558,2.137-14.585,5.305-9.522-1.941-25.334.436-35.456,3.715Z"/><path class="cls-4" d="M86.949,69.079q-2.4-.618-4.882-1.17,2.48.528,4.9,1.154Z"/><path class="cls-5" d="M85.713,70.315c-1.61-.415-18.48-6.266-19.371-6.448,10.791-6.9,21.807-5.748,28.459-2.64Z"/><path class="cls-1" d="M79.407,67.342"/><path class="cls-6" d="M31.135,83.872c15.083-4.661,32.737-4.835,40.652.369L48.182,107.846S37.05,109.389,30.3,109.9c-6.045.461-12.3,1.217-18.762,2.32l-4.378-4.377Z"/><path class="cls-2" d="M27.121,105.846a48.678,48.678,0,0,1,21.061,2L80.9,140.56c-9.641,3.292-20.085,6.981-30.83,10.191L11.539,112.223C17.179,108.069,21.108,106.616,27.121,105.846Z"/><path class="cls-3" d="M81.649,141.312,66.8,126.466s-20.584-11.172-38.251,2.769L52.96,153.644Z"/><path class="cls-6" d="M93.707,153.371l9.2,9.2v25.741c-5.412-2.117-10.738-4.267-15.822-6-2.659-.9-5.252-1.694-7.756-2.3l-19.4-19.4C63.924,150.637,82.174,148.482,93.707,153.371Z"/><path class="cls-2" d="M87.709,171.546c5.3.849,11.671,4,15.2,7.912V203.6L70.919,171.6C73.669,170.759,81.046,170.479,87.709,171.546Z"/><path class="cls-1" d="M85.33,29.678c5.809-3.874,12.51-4.931,17.581-3.379V35.74A28.237,28.237,0,0,0,89.73,41.267c-6.047,4.675-8.039,6.3-12.321,7.773a33.379,33.379,0,0,1-12.656,1.214Z"/><path class="cls-1" d="M67.916,148.653c7.607-2.461,4.594-8.836,12.981-8.093l12.81,12.811c-2.088,7.051-15.257,9.109-33.772,7.248l-9.868-9.868C50.067,146.45,64.984,149.6,67.916,148.653Z"/><path class="cls-5" d="M44.116,144.8l12.616,12.616s21.559,1.438,27.153-13.868l-6.667-6.666S65.828,149.918,44.116,144.8Z"/><path class="cls-1" d="M44.313,70.694c8.657-6.15,24.033-8.626,33.415-6.15,3.891,1.026,7.3,3.817,8.209,5.548L64.309,91.72c-4.625-9.222-31.338-7.136-46.365,5.344Z"/><path class="cls-3" d="M102.911,203.6v-9.048s-8.014,1.422-18.249-9.2Z"/><path class="cls-1" d="M691.771.581V53.963a2.4,2.4,0,0,0,.7,1.694l50.3,50.3a2.394,2.394,0,0,1,0,3.386l-50.3,50.3a2.394,2.394,0,0,0-.7,1.693v53.383a.579.579,0,0,0,.989.409L799.83,108.06a.578.578,0,0,0,0-.819L692.76.171A.579.579,0,0,0,691.771.581Z"/><path class="cls-1" d="M691.771.581V53.963a2.4,2.4,0,0,0,.7,1.694l50.3,50.3a2.394,2.394,0,0,1,0,3.386l-50.3,50.3a2.394,2.394,0,0,0-.7,1.693v53.383a.579.579,0,0,0,.989.409L799.83,108.06a.578.578,0,0,0,0-.819L692.76.171A.579.579,0,0,0,691.771.581Z"/><path class="cls-2" d="M697.28,12.1V36.83c4.9-1.941,10.736-4.668,17.581-7.152Z"/><path class="cls-3" d="M735.437,50.254A55.365,55.365,0,0,1,722.4,47.087c-2.392-.893-15.657-9.927-15.657-9.927-.759-.243-4.248-3.309-9.465-4.1V53.117l8.919,8.92c7.782,3.25,9.557,2.137,14.584,5.305,9.523-1.941,25.335.436,35.457,3.715Z"/><path class="cls-4" d="M713.242,69.079q2.4-.618,4.882-1.17-2.48.528-4.9,1.154Z"/><path class="cls-5" d="M714.478,70.315c1.61-.415,18.479-6.266,19.371-6.448-10.791-6.9-21.807-5.748-28.459-2.64Z"/><path class="cls-1" d="M720.783,67.342"/><path class="cls-6" d="M769.056,83.872c-15.083-4.661-32.738-4.835-40.652.369l23.6,23.605s11.133,1.543,17.882,2.057c6.045.461,12.3,1.217,18.762,2.32l4.377-4.377Z"/><path class="cls-2" d="M773.07,105.846a48.685,48.685,0,0,0-21.062,2L719.294,140.56c9.641,3.292,20.084,6.981,30.83,10.191l38.528-38.528C783.012,108.069,779.083,106.616,773.07,105.846Z"/><path class="cls-3" d="M718.542,141.312l14.846-14.846s20.585-11.172,38.252,2.769l-24.409,24.409Z"/><path class="cls-6" d="M706.483,153.371l-9.2,9.2v25.741c5.411-2.117,10.737-4.267,15.822-6,2.659-.9,5.252-1.694,7.756-2.3l19.4-19.4C736.267,150.637,718.017,148.482,706.483,153.371Z"/><path class="cls-2" d="M712.482,171.546c-5.3.849-11.671,4-15.2,7.912V203.6L729.271,171.6C726.522,170.759,719.144,170.479,712.482,171.546Z"/><path class="cls-1" d="M714.861,29.678c-5.809-3.874-12.51-4.931-17.581-3.379V35.74a28.237,28.237,0,0,1,13.181,5.527c6.047,4.675,8.039,6.3,12.32,7.773a33.381,33.381,0,0,0,12.656,1.214Z"/><path class="cls-1" d="M732.275,148.653c-7.607-2.461-4.594-8.836-12.981-8.093l-12.811,12.811c2.089,7.051,15.257,9.109,33.773,7.248l9.868-9.868C750.124,146.45,735.207,149.6,732.275,148.653Z"/><path class="cls-5" d="M756.075,144.8l-12.616,12.616s-21.559,1.438-27.153-13.868l6.666-6.666S734.362,149.918,756.075,144.8Z"/><path class="cls-1" d="M755.878,70.694c-8.658-6.15-24.033-8.626-33.415-6.15-3.891,1.026-7.3,3.817-8.209,5.548L735.882,91.72c4.625-9.222,31.338-7.136,46.365,5.344Z"/><path class="cls-3" d="M697.28,203.6v-9.048s8.013,1.422,18.248-9.2Z"/></g><g id="Layer_4" data-name="Layer 4"><path class="cls-2" d="M293.469,138.578a30.844,30.844,0,0,1-9.345,1.38,32.661,32.661,0,0,1-16.821-4.273,30.142,30.142,0,0,1-11.348-11.569,32.459,32.459,0,0,1-4.049-16.02,33.483,33.483,0,0,1,4.183-16.643,31.228,31.228,0,0,1,27.679-16.109,32.683,32.683,0,0,1,17.266,4.805l-1.869,4.006a28.758,28.758,0,0,0-15.308-4.629,26.211,26.211,0,0,0-13.706,3.783,27.649,27.649,0,0,0-10.013,10.324,28.561,28.561,0,0,0-3.693,14.284,29.377,29.377,0,0,0,3.382,14.018,25.579,25.579,0,0,0,9.612,10.1,27.471,27.471,0,0,0,14.418,3.737,28.407,28.407,0,0,0,15.4-4.538l2.047,3.826A35,35,0,0,1,293.469,138.578Z"/><path class="cls-2" d="M315.229,112.412a17.931,17.931,0,0,1,6.719-6.675,19.411,19.411,0,0,1,18.869,0,17.613,17.613,0,0,1,6.674,6.675,18.315,18.315,0,0,1,2.4,9.212,18.111,18.111,0,0,1-9.122,15.886,18.571,18.571,0,0,1-9.479,2.448,19.12,19.12,0,0,1-9.478-2.359,17.118,17.118,0,0,1-6.631-6.541,18.593,18.593,0,0,1-2.4-9.434A18.054,18.054,0,0,1,315.229,112.412Zm3.649,16.688a14.255,14.255,0,0,0,5.206,5.339,14.25,14.25,0,0,0,14.418,0,14.28,14.28,0,0,0,5.207-5.339,14.754,14.754,0,0,0,1.913-7.388,15,15,0,0,0-1.913-7.431A14.225,14.225,0,0,0,338.5,108.9a13.861,13.861,0,0,0-7.209-1.958,13.345,13.345,0,0,0-7.3,2.092,14.982,14.982,0,0,0-5.162,5.473,15.034,15.034,0,0,0,.045,14.6Z"/><path class="cls-2" d="M389.766,106.36a10.541,10.541,0,0,1,3.2,7.52v25.366H388.7V115.038a8.616,8.616,0,0,0-2.225-5.652,7.941,7.941,0,0,0-5.874-2.269,12.958,12.958,0,0,0-11.347,6.452,13.408,13.408,0,0,0-1.825,6.987v18.69h-4.183v-34.8h3.649l.356,7.742a13.213,13.213,0,0,1,5.741-6.363,17.457,17.457,0,0,1,8.944-2.358A10.874,10.874,0,0,1,389.766,106.36Z"/><path class="cls-2" d="M417.445,89.139v15.753h10.769v3.381H417.445v30.973h-4.272V108.273h-7.388v-3.381h7.388V89.139Z"/><path class="cls-2" d="M473.425,104.447v34.8h-4.182v-7.388a16.548,16.548,0,0,1-6.231,5.741,18.873,18.873,0,0,1-18.111.089,16.608,16.608,0,0,1-6.408-6.408,20.608,20.608,0,0,1,.089-19.313,16.453,16.453,0,0,1,6.763-6.363,20.963,20.963,0,0,1,9.746-2.226,15.429,15.429,0,0,1,8.187,2.4,16.237,16.237,0,0,1,5.965,6.23l.443-7.565Zm-8.633,28.3a13.129,13.129,0,0,0,4.451-9.345v-4.985a14.163,14.163,0,0,0-5.162-8.188,14.514,14.514,0,0,0-9.346-3.293,14.824,14.824,0,0,0-7.3,1.825,13.392,13.392,0,0,0-5.2,5.162,15.192,15.192,0,0,0-1.914,7.7,14.481,14.481,0,0,0,1.958,7.387,14.849,14.849,0,0,0,5.3,5.384,13.838,13.838,0,0,0,7.252,2A14.453,14.453,0,0,0,464.792,132.749Z"/><path class="cls-2" d="M511.56,138.889a19.7,19.7,0,0,1-15.753-1.29,17.218,17.218,0,0,1-6.63-6.5,18.179,18.179,0,0,1-2.4-9.3,17.922,17.922,0,0,1,2.447-9.3,17.642,17.642,0,0,1,6.631-6.5,18.188,18.188,0,0,1,9.078-2.359,18.584,18.584,0,0,1,12.193,4.095l-2.225,2.847a15.442,15.442,0,0,0-9.7-3.47,13.615,13.615,0,0,0-7.164,1.958,14.378,14.378,0,0,0-5.162,5.34,14.733,14.733,0,0,0-1.914,7.387,14.487,14.487,0,0,0,1.914,7.342,14.4,14.4,0,0,0,12.682,7.253,15.012,15.012,0,0,0,9.167-3.114l2.314,2.581A17.892,17.892,0,0,1,511.56,138.889Z"/><path class="cls-2" d="M537.326,89.139v15.753h10.768v3.381H537.326v30.973h-4.273V108.273h-7.386v-3.381h7.386V89.139Z"/></g></svg>