<?xml version="1.0" encoding="utf-8"?>
<!-- Generator: Adobe Illustrator 24.3.0, SVG Export Plug-In . SVG Version: 6.00 Build 0)  -->
<svg version="1.1" id="Layer_1" xmlns="http://www.w3.org/2000/svg" xmlns:xlink="http://www.w3.org/1999/xlink" x="0px" y="0px"
	 viewBox="0 0 198.8 198.8" style="enable-background:new 0 0 198.8 198.8;" xml:space="preserve">
<style type="text/css">
	.st0{fill:#0C304A;}
	.st1{fill:#F74902;}
	.st2{fill:#7DF9FF;}
</style>
<path class="st0" d="M8.7,0h181.4c4.8,0,8.7,3.9,8.7,8.7v25.8c0,4.8-3.9,8.7-8.7,8.7H8.7c-4.8,0-8.7-3.9-8.7-8.7V8.7
	C0,3.9,3.9,0,8.7,0z"/>
<path class="st1" d="M8.7,77.8h181.4c4.8,0,8.7,3.9,8.7,8.7v25.8c0,4.8-3.9,8.7-8.7,8.7H8.7c-4.8,0-8.7-3.9-8.7-8.7V86.5
	C0,81.7,3.9,77.8,8.7,77.8z"/>
<path class="st2" d="M8.7,155.5h181.4c4.8,0,8.7,3.9,8.7,8.7v25.8c0,4.8-3.9,8.7-8.7,8.7H8.7c-4.8,0-8.7-3.9-8.7-8.7v-25.8
	C0,159.4,3.9,155.5,8.7,155.5z"/>
</svg>
