<svg xmlns="http://www.w3.org/2000/svg" viewBox="0 0 719.16 629.779"><defs><style>.cls-1{fill:#0c304a;}.cls-2{fill:#f74902;}.cls-3{fill:#7df9ff;}.cls-4{fill:#dbf0f5;}.cls-5{fill:#d8ffff;}.cls-6{fill:#9e2c1d;}</style></defs><g id="Layer_3" data-name="Layer 3"><path class="cls-1" d="M313.191.5,0,313.691a1.7,1.7,0,0,0,0,2.4L313.191,629.279a1.7,1.7,0,0,0,2.894-1.2V471.932a7,7,0,0,0-2.052-4.953L166.9,319.842a7,7,0,0,1,0-9.9L314.033,162.8a7,7,0,0,0,2.052-4.952V1.7A1.7,1.7,0,0,0,313.191.5Z" transform="translate(0.497)"/><path class="cls-1" d="M402.082,1.7v156.15a7,7,0,0,0,2.051,4.952L551.27,309.937a7,7,0,0,1,0,9.9L404.133,466.979a7.007,7.007,0,0,0-2.051,4.953V628.08a1.7,1.7,0,0,0,2.894,1.2L718.167,316.088a1.7,1.7,0,0,0,0-2.4L404.976.5A1.7,1.7,0,0,0,402.082,1.7Z" transform="translate(0.497)"/></g><g id="Layer_2" data-name="Layer 2"><path class="cls-2" d="M418.2,35.383v72.35c14.336-5.679,31.406-13.657,51.427-20.923Z" transform="translate(0.497)"/><path class="cls-3" d="M529.81,147a161.861,161.861,0,0,1-38.13-9.263c-7-2.611-45.8-29.038-45.8-29.038-2.222-.71-12.427-9.677-27.688-12v58.683l26.09,26.089c22.762,9.509,27.956,6.253,42.66,15.521,27.854-5.68,74.106,1.274,103.715,10.864Z" transform="translate(0.497)"/><path class="cls-4" d="M464.886,202.064q7.035-1.807,14.28-3.422-7.251,1.542-14.328,3.374Z" transform="translate(0.497)"/><path class="cls-5" d="M468.5,205.679c4.71-1.213,54.056-18.329,56.664-18.861-31.565-20.192-63.789-16.813-83.246-7.721Z" transform="translate(0.497)"/><path class="cls-1" d="M486.946,196.984" transform="translate(0.497)"/><path class="cls-6" d="M628.147,245.335c-44.118-13.634-95.76-14.142-118.911,1.079l69.046,69.046s32.564,4.513,52.306,6.018c17.681,1.348,35.991,3.559,54.882,6.786l12.8-12.8Z" transform="translate(0.497)"/><path class="cls-2" d="M639.89,309.61a142.4,142.4,0,0,0-61.608,5.85l-95.693,95.693c28.2,9.629,58.75,20.419,90.18,29.811l112.7-112.7C668.971,316.112,657.478,311.864,639.89,309.61Z" transform="translate(0.497)"/><path class="cls-3" d="M480.39,413.352l43.427-43.427s60.212-32.679,111.889,8.1l-71.4,71.4Z" transform="translate(0.497)"/><path class="cls-6" d="M445.117,448.625,418.2,475.546v75.3c15.829-6.192,31.409-12.481,46.281-17.539,7.777-2.644,15.362-4.953,22.686-6.732l56.742-56.742C532.236,440.629,478.854,434.324,445.117,448.625Z" transform="translate(0.497)"/><path class="cls-2" d="M462.664,501.79c-15.512,2.484-34.14,11.71-44.468,23.145v70.6l93.578-93.578C503.731,499.488,482.152,498.67,462.664,501.79Z" transform="translate(0.497)"/><path class="cls-1" d="M469.623,86.81C452.631,75.48,433.03,72.389,418.2,76.927v27.618a82.572,82.572,0,0,1,38.557,16.164c17.687,13.676,23.514,18.429,36.038,22.739,9.779,3.365,27.6,5,37.019,3.549Z" transform="translate(0.497)"/><path class="cls-1" d="M520.56,434.826c-22.25-7.2-13.438-25.846-37.971-23.673l-37.472,37.472c6.11,20.627,44.628,26.646,98.788,21.2l28.864-28.864C572.769,428.383,529.136,437.6,520.56,434.826Z" transform="translate(0.497)"/><path class="cls-5" d="M590.178,423.555l-36.9,36.9s-63.062,4.206-79.426-40.565l19.5-19.5S526.666,438.525,590.178,423.555Z" transform="translate(0.497)"/><path class="cls-1" d="M589.6,206.788c-25.324-17.991-70.3-25.231-97.742-17.991-11.382,3-21.357,11.167-24.011,16.229l63.264,63.264c13.527-26.974,91.665-20.874,135.622,15.631Z" transform="translate(0.497)"/><path class="cls-3" d="M418.2,595.537V569.071s23.441,4.158,53.379-26.913Z" transform="translate(0.497)"/><path class="cls-2" d="M300.529,35.383v72.35c-14.336-5.679-31.406-13.657-51.427-20.923Z" transform="translate(0.497)"/><path class="cls-3" d="M188.914,147a161.857,161.857,0,0,0,38.131-9.263c7-2.611,45.8-29.038,45.8-29.038,2.221-.71,12.426-9.677,27.688-12v58.683l-26.09,26.089c-22.763,9.509-27.956,6.253-42.661,15.521-27.853-5.68-74.1,1.274-103.715,10.864Z" transform="translate(0.497)"/><path class="cls-4" d="M253.839,202.064q-7.035-1.807-14.281-3.422,7.252,1.542,14.328,3.374Z" transform="translate(0.497)"/><path class="cls-5" d="M250.223,205.679c-4.71-1.213-54.055-18.329-56.664-18.861,31.566-20.192,63.79-16.813,83.247-7.721Z" transform="translate(0.497)"/><path class="cls-1" d="M231.778,196.984" transform="translate(0.497)"/><path class="cls-6" d="M90.577,245.335c44.118-13.634,95.76-14.142,118.912,1.079L140.442,315.46s-32.563,4.513-52.306,6.018c-17.681,1.348-35.99,3.559-54.881,6.786l-12.8-12.8Z" transform="translate(0.497)"/><path class="cls-2" d="M78.835,309.61a142.4,142.4,0,0,1,61.607,5.85l95.693,95.693c-28.2,9.629-58.749,20.419-90.18,29.811l-112.7-112.7C49.754,316.112,61.246,311.864,78.835,309.61Z" transform="translate(0.497)"/><path class="cls-3" d="M238.334,413.352l-43.427-43.427s-60.212-32.679-111.889,8.1l71.4,71.4Z" transform="translate(0.497)"/><path class="cls-6" d="M273.607,448.625l26.922,26.921v75.3c-15.83-6.192-31.409-12.481-46.282-17.539-7.777-2.644-15.361-4.953-22.686-6.732L174.82,469.828C186.489,440.629,239.871,434.324,273.607,448.625Z" transform="translate(0.497)"/><path class="cls-2" d="M256.061,501.79c15.511,2.484,34.139,11.71,44.468,23.145v70.6L206.95,501.959C214.994,499.488,236.573,498.67,256.061,501.79Z" transform="translate(0.497)"/><path class="cls-1" d="M249.1,86.81c16.992-11.33,36.592-14.421,51.427-9.883v27.618a82.572,82.572,0,0,0-38.557,16.164c-17.687,13.676-23.515,18.429-36.038,22.739-9.779,3.365-27.6,5-37.02,3.549Z" transform="translate(0.497)"/><path class="cls-1" d="M198.165,434.826c22.25-7.2,13.437-25.846,37.97-23.673l37.472,37.472c-6.109,20.627-44.628,26.646-98.787,21.2l-28.865-28.864C145.955,428.383,189.589,437.6,198.165,434.826Z" transform="translate(0.497)"/><path class="cls-5" d="M128.546,423.555l36.9,36.9s63.062,4.206,79.425-40.565l-19.5-19.5S192.058,438.525,128.546,423.555Z" transform="translate(0.497)"/><path class="cls-1" d="M129.124,206.788c25.323-17.991,70.3-25.231,97.742-17.991,11.382,3,21.357,11.167,24.011,16.229L187.613,268.29c-13.528-26.974-91.666-20.874-135.622,15.631Z" transform="translate(0.497)"/><path class="cls-3" d="M300.529,595.537V569.071s-23.441,4.158-53.379-26.913Z" transform="translate(0.497)"/></g></svg>