<svg xmlns="http://www.w3.org/2000/svg" viewBox="0 0 638.374 1079.685"><defs><style>.cls-1{fill:#9e2c1d;}.cls-2{fill:#0c304a;}.cls-3{fill:#f74902;}.cls-4{fill:#7df9ff;}.cls-5{fill:#d8ffff;}</style></defs><g id="Layer_2" data-name="Layer 2"><g id="pic"><path class="cls-1" d="M188.906,595.232c16.6,6.077,33.988,12.757,51.74,20.022q12,1.334,23.7,3.21c85.311,13.774,209.182,66.6,339.585,103.2q17.158,4.817,34.447,9.221v-229.8C415.52,494.465,254.892,561.54,188.906,595.232Z"/><path class="cls-2" d="M234.166,0H63.418A503.754,503.754,0,0,1,0,23.081V83.4A942.523,942.523,0,0,0,150.667,29.227C172.918,18.987,200.933,2.438,234.166,0Z"/><path class="cls-1" d="M234.166,0c-33.233,2.438-61.248,18.987-83.5,29.227A942.523,942.523,0,0,1,0,83.4v40.222c19.744-3.722,40.824-6.838,64.132-9.231a585.069,585.069,0,0,1,107.361-.764A867.2,867.2,0,0,1,384.349,29.151C487.423,3.394,566.131,3.887,599.147,0Z"/><path class="cls-3" d="M606.387,0h-7.24c-33.016,3.887-111.724,3.394-214.8,29.151a867.2,867.2,0,0,0-212.856,84.477q9.4.771,18.432,1.775a697.3,697.3,0,0,1,103.564,19.605C362.35,111.853,473.871,40.4,638.374,64.762V0Z"/><path class="cls-2" d="M293.489,135.008c15.015,4.036,26.42,7.64,33.39,9.868l.61.194C363.615,156.624,428.146,176.7,440.462,181.3c73.287,27.354,140.473,20.552,197.912.8V64.762C473.871,40.4,362.35,111.853,293.489,135.008Z"/><path class="cls-4" d="M440.462,181.3c-12.316-4.6-76.847-24.675-112.973-36.229l-.61-.194c-6.97-2.228-18.375-5.832-33.39-9.868A697.3,697.3,0,0,0,189.925,115.4q-9.027-1-18.432-1.775a585.069,585.069,0,0,0-107.361.764C40.824,116.785,19.744,119.9,0,123.623v81.166c26.976-6.913,57.857-11.771,94.78-14.072,146.659-9.14,269.387,52.041,337.352,94.873,50.622-10.322,104.248-15.981,154.854-13.146,18.123,1.015,35.209,2.439,51.388,4.177V182.1C580.935,201.851,513.749,208.653,440.462,181.3Z"/><path class="cls-5" d="M156.381,384.653c24.339-8.733,48.319-19.3,73.626-30.45-33.711,13.805-63.6,26.24-73.626,30.45Z"/><path class="cls-5" d="M350.988,306.641l.007,0c21.5-6.806,44.451-13.036,68.185-18.3-23.692,5-46.691,11.493-68.185,18.3Z"/><path class="cls-5" d="M94.78,190.717c-36.923,2.3-67.8,7.159-94.78,14.072V405.915c61.577,5.507,109.672-4.5,156.381-21.262,10.023-4.21,39.915-16.645,73.626-30.45,13.369-5.89,27.1-11.941,41.467-17.976,24.309-10.212,50.4-20.37,79.514-29.586l.007,0c21.494-6.8,44.493-13.292,68.185-18.3q6.44-1.427,12.952-2.753C364.167,242.758,241.439,181.577,94.78,190.717Z"/><path class="cls-2" d="M586.986,272.444c-50.606-2.835-104.232,2.824-154.854,13.146l.224.141q-6.618,1.221-13.176,2.612c-23.734,5.26-46.68,11.49-68.185,18.3l-.007,0c-17.122,5.42-72.931,27.884-120.981,47.562-25.307,11.151-49.287,21.717-73.626,30.45C109.672,401.413,61.577,411.422,0,405.915V540.7c19.811,2.881,40.246,6.673,61.463,11.547,0,0,5.842,1.486,16.188,4.389,30.115-10.7,61.191-23,92.164-37.077,41.966-19.067,83.739-41.382,122.664-67.365,109.129-72.844,226.247-103.4,345.9-88.59V276.621C622.2,274.883,605.109,273.459,586.986,272.444Z"/><path class="cls-2" d="M230.007,354.2c48.05-19.678,103.859-42.142,120.981-47.562-29.117,9.216-55.2,19.374-79.514,29.586C257.108,342.262,243.376,348.313,230.007,354.2Z"/><path class="cls-2" d="M432.356,285.731l-.224-.141q-6.512,1.328-12.952,2.753Q425.737,286.959,432.356,285.731Z"/><path class="cls-3" d="M292.479,452.189c-38.925,25.983-80.7,48.3-122.664,67.365-30.973,14.073-62.049,26.376-92.164,37.077,7.333,2.058,16.929,4.827,28.34,8.293,23.959,7.275,55.884,17.607,91.486,30.8,64.728-33.458,222.293-100.068,440.9-93.485V363.6C518.726,348.788,401.608,379.345,292.479,452.189Z"/><path class="cls-4" d="M197.477,595.724c-35.6-13.193-67.527-23.525-91.486-30.8-11.411-3.466-21.007-6.235-28.34-8.293-10.346-2.9-16.188-4.389-16.188-4.389C40.246,547.368,19.811,543.576,0,540.7v92.993c55.064-11.954,112.4-19.919,167.685-21.282a592.7,592.7,0,0,1,80.546,3.2C230.816,608.393,213.764,601.759,197.477,595.724Z"/><path class="cls-2" d="M604.583,721.285c-127.915-36.35-249.424-88.812-333.109-102.49q-11.461-1.873-23.243-3.188a592.7,592.7,0,0,0-80.546-3.2C112.4,613.769,55.064,621.734,0,633.688V818.834c56.635,3.143,103.354-1.424,156.806-21.395,37.881-14.153,62.219-33.425,110.807-49.778C388.751,706.889,482.7,731.7,579.142,792.348c24.9,15.659,43.123,28.018,59.232,40.736V730.442Q621.426,726.086,604.583,721.285Z"/><path class="cls-1" d="M579.142,792.348C482.7,731.7,388.751,706.889,267.613,747.661c-48.588,16.353-72.926,35.625-110.807,49.778C103.354,817.41,56.635,821.977,0,818.834V923c35.722,13.98,72.521,23.912,118.626,28.961,85.166,9.327,186.507-44.645,273.954-74.384,13.78-4.686,27.219-8.775,40.191-11.915,61.6-14.91,103.176,2.5,130.392,23.876q1.864,1.465,3.642,2.952,5.64-2.589,11.253-5.189c20.083-9.294,39.983-18.63,60.316-27.575V833.084C622.265,820.366,604.044,808.007,579.142,792.348Z"/><path class="cls-3" d="M563.163,889.541c-27.216-21.372-68.789-38.786-130.392-23.876-12.972,3.14-26.411,7.229-40.191,11.915-87.447,29.739-188.788,83.711-273.954,74.384C72.521,946.915,35.722,936.983,0,923v23.258c29.808,11.7,60.664,21.688,95.549,28.059,3.143.574,6.307,1.129,9.518,1.642,122.046,19.529,277.118-26.535,365.776-49.814,15.211-3.994,28.469-7.317,39.268-9.523q7.817-2.914,15.6-5.835c13.957-5.955,27.591-12.1,41.091-18.3Q565.029,891.008,563.163,889.541Z"/><path class="cls-2" d="M470.843,926.148c-88.658,23.279-243.73,69.343-365.776,49.814-3.211-.513-6.375-1.068-9.518-1.642C60.664,967.949,29.808,957.96,0,946.261v81.818q17.784.222,35.316.068c154.465-1.4,302.882-48.383,443.976-100.119q15.468-5.672,30.819-11.4C499.312,918.831,486.054,922.154,470.843,926.148Z"/><path class="cls-5" d="M578.058,887.3q-5.614,2.6-11.253,5.189c-13.5,6.2-27.134,12.342-41.091,18.3q-7.787,2.919-15.6,5.835-15.35,5.724-30.819,11.4C338.2,979.764,189.781,1026.749,35.316,1028.147q-17.52.159-35.316-.068v16.252q26.15-.046,51.959-.281c142.366-1.29,268.128-17.927,395.323-56.743q29.2-8.912,58.573-19.408c6.609-2.362,13.225-4.763,19.859-7.25,25.009-7.166,48.917-16.329,72.692-26.146,13.307-5.5,26.574-11.193,39.968-16.863V859.729C618.041,868.674,598.141,878.01,578.058,887.3Z"/><path class="cls-4" d="M598.406,934.5c-23.775,9.817-47.683,18.98-72.692,26.146-6.634,2.487-13.25,4.888-19.859,7.25q-29.4,10.509-58.573,19.408c-127.195,38.816-252.957,55.453-395.323,56.743q-25.783.232-51.959.281v35.354H638.374V917.64C624.98,923.31,611.713,929.008,598.406,934.5Z"/><path class="cls-4" d="M0,0V23.081A503.754,503.754,0,0,0,63.418,0Z"/></g></g></svg>