<svg id="Layer_1" data-name="Layer 1" xmlns="http://www.w3.org/2000/svg" viewBox="0 0 800 215.301"><defs><style>.cls-1{fill:#0c304a;}.cls-2{fill:#f74902;}.cls-3{fill:#7df9ff;}.cls-4{fill:#dbf0f5;}.cls-5{fill:#d8ffff;}.cls-6{fill:#9e2c1d;}</style></defs><path class="cls-1" d="M107.24.171.17,107.241a.578.578,0,0,0,0,.819L107.24,215.13a.579.579,0,0,0,.989-.409V161.338a2.394,2.394,0,0,0-.7-1.693l-50.3-50.3a2.394,2.394,0,0,1,0-3.386l50.3-50.3a2.4,2.4,0,0,0,.7-1.694V.581A.579.579,0,0,0,107.24.171Z"/><path class="cls-1" d="M107.24.171.17,107.241a.578.578,0,0,0,0,.819L107.24,215.13a.579.579,0,0,0,.989-.409V161.338a2.394,2.394,0,0,0-.7-1.693l-50.3-50.3a2.394,2.394,0,0,1,0-3.386l50.3-50.3a2.4,2.4,0,0,0,.7-1.694V.581A.579.579,0,0,0,107.24.171Z"/><path class="cls-2" d="M102.911,12.1V36.83c-4.9-1.941-10.737-4.668-17.581-7.152Z"/><path class="cls-3" d="M64.753,50.254a55.372,55.372,0,0,0,13.036-3.167c2.392-.893,15.656-9.927,15.656-9.927.76-.243,4.248-3.309,9.466-4.1V53.117l-8.919,8.92c-7.782,3.25-9.558,2.137-14.585,5.305-9.522-1.941-25.334.436-35.456,3.715Z"/><path class="cls-4" d="M86.949,69.079q-2.4-.618-4.882-1.17,2.48.528,4.9,1.154Z"/><path class="cls-5" d="M85.713,70.315c-1.61-.415-18.48-6.266-19.371-6.448,10.791-6.9,21.807-5.748,28.459-2.64Z"/><path class="cls-1" d="M79.407,67.342"/><path class="cls-6" d="M31.135,83.872c15.083-4.661,32.737-4.835,40.652.369L48.182,107.846S37.05,109.389,30.3,109.9c-6.045.461-12.3,1.217-18.762,2.32l-4.378-4.377Z"/><path class="cls-2" d="M27.121,105.846a48.678,48.678,0,0,1,21.061,2L80.9,140.56c-9.641,3.292-20.085,6.981-30.83,10.191L11.539,112.223C17.179,108.069,21.108,106.616,27.121,105.846Z"/><path class="cls-3" d="M81.649,141.312,66.8,126.466s-20.584-11.172-38.251,2.769L52.96,153.644Z"/><path class="cls-6" d="M93.707,153.371l9.2,9.2v25.741c-5.412-2.117-10.738-4.267-15.822-6-2.659-.9-5.252-1.694-7.756-2.3l-19.4-19.4C63.924,150.637,82.174,148.482,93.707,153.371Z"/><path class="cls-2" d="M87.709,171.546c5.3.849,11.671,4,15.2,7.912V203.6L70.919,171.6C73.669,170.759,81.046,170.479,87.709,171.546Z"/><path class="cls-1" d="M85.33,29.678c5.809-3.874,12.51-4.931,17.581-3.379V35.74A28.237,28.237,0,0,0,89.73,41.267c-6.047,4.675-8.039,6.3-12.321,7.773a33.379,33.379,0,0,1-12.656,1.214Z"/><path class="cls-1" d="M67.916,148.653c7.607-2.461,4.594-8.836,12.981-8.093l12.81,12.811c-2.088,7.051-15.257,9.109-33.772,7.248l-9.868-9.868C50.067,146.45,64.984,149.6,67.916,148.653Z"/><path class="cls-5" d="M44.116,144.8l12.616,12.616s21.559,1.438,27.153-13.868l-6.667-6.666S65.828,149.918,44.116,144.8Z"/><path class="cls-1" d="M44.313,70.694c8.657-6.15,24.033-8.626,33.415-6.15,3.891,1.026,7.3,3.817,8.209,5.548L64.309,91.72c-4.625-9.222-31.338-7.136-46.365,5.344Z"/><path class="cls-3" d="M102.911,203.6v-9.048s-8.014,1.422-18.249-9.2Z"/><path class="cls-2" d="M292.27,73.268q5.145,4.457,5.147,12.932a19.828,19.828,0,0,1-2.076,8.995,16,16,0,0,1-6.444,6.7,21.418,21.418,0,0,1-10.942,2.551H268.44v25.776H264.2V68.814h14.186Q287.123,68.814,292.27,73.268Zm-5.319,24.868a12.66,12.66,0,0,0,4.887-5.493,15.9,15.9,0,0,0,1.427-6.443,12.8,12.8,0,0,0-3.806-9.645q-3.807-3.675-10.639-3.676H268.44v27.506h9.515A16.246,16.246,0,0,0,286.951,98.136Z"/><path class="cls-2" d="M320.769,97.963a17.093,17.093,0,0,1,8.3-2.508l-.173,3.979a14.792,14.792,0,0,0-7.006,1.686,12.96,12.96,0,0,0-5.06,4.671,12.1,12.1,0,0,0-1.86,6.53v17.905h-4.065V96.406h3.546l.346,8.044A14.072,14.072,0,0,1,320.769,97.963Z"/><path class="cls-2" d="M339.064,104.147a17.422,17.422,0,0,1,6.53-6.487,18.864,18.864,0,0,1,18.337,0,17.11,17.11,0,0,1,6.487,6.487,17.813,17.813,0,0,1,2.336,8.953,17.6,17.6,0,0,1-8.866,15.439,18.04,18.04,0,0,1-9.212,2.379,18.578,18.578,0,0,1-9.212-2.292,16.642,16.642,0,0,1-6.444-6.358,18.064,18.064,0,0,1-2.335-9.168A17.549,17.549,0,0,1,339.064,104.147Zm3.546,16.218a13.846,13.846,0,0,0,5.06,5.19,13.848,13.848,0,0,0,14.012,0,13.861,13.861,0,0,0,5.06-5.19,14.324,14.324,0,0,0,1.86-7.179,14.565,14.565,0,0,0-1.86-7.222,13.806,13.806,0,0,0-5.06-5.233,13.465,13.465,0,0,0-7.006-1.9,12.96,12.96,0,0,0-7.093,2.033,14.544,14.544,0,0,0-5.016,5.319,14.6,14.6,0,0,0,.043,14.185Z"/><path class="cls-2" d="M381.663,143.979a16.132,16.132,0,0,0,3.632-5.709,20.814,20.814,0,0,0,1.3-7.525V96.406h4.152v34.252q0,10.812-6.488,15.829Zm4.973-62.061a3.063,3.063,0,0,1,2.119-.822,2.912,2.912,0,0,1,2.076.822,2.7,2.7,0,0,1,.865,2.033,2.8,2.8,0,0,1-.865,2.119,2.908,2.908,0,0,1-2.076.822,2.974,2.974,0,0,1-2.119-.865,2.765,2.765,0,0,1-.908-2.076A2.636,2.636,0,0,1,386.636,81.918Z"/><path class="cls-2" d="M430.619,123.652l2.076,2.941a20.463,20.463,0,0,1-5.665,3.157,18.207,18.207,0,0,1-6.358,1.168,18.476,18.476,0,0,1-9.3-2.335,16.73,16.73,0,0,1-6.4-6.358,17.928,17.928,0,0,1-2.292-9.039,17.313,17.313,0,0,1,2.422-8.952,18.078,18.078,0,0,1,6.574-6.53,17.707,17.707,0,0,1,9.082-2.422,15.167,15.167,0,0,1,10.033,3.459,19.724,19.724,0,0,1,6.055,9.342l-28.89,11.158a13.886,13.886,0,0,0,12.8,8.131A14.912,14.912,0,0,0,430.619,123.652Zm-17.126-23.008a13.657,13.657,0,0,0-5.017,5.147,14.527,14.527,0,0,0-1.816,7.222,13.253,13.253,0,0,0,.346,3.2l24.911-9.774a14.309,14.309,0,0,0-4.585-5.579,11.382,11.382,0,0,0-6.833-2.12A13.469,13.469,0,0,0,413.493,100.644Z"/><path class="cls-2" d="M469.759,129.88a19.16,19.16,0,0,1-15.31-1.254,16.73,16.73,0,0,1-6.444-6.314,17.669,17.669,0,0,1-2.336-9.039,17.418,17.418,0,0,1,2.379-9.039,17.137,17.137,0,0,1,6.444-6.314,17.675,17.675,0,0,1,8.823-2.292,18.067,18.067,0,0,1,11.85,3.978L473,102.374A15.006,15.006,0,0,0,463.574,99a13.237,13.237,0,0,0-6.963,1.9,13.981,13.981,0,0,0-5.016,5.19,14.319,14.319,0,0,0-1.86,7.179,14.083,14.083,0,0,0,1.86,7.136,13.852,13.852,0,0,0,5.1,5.146,14,14,0,0,0,7.222,1.9,14.587,14.587,0,0,0,8.909-3.027l2.249,2.508A17.378,17.378,0,0,1,469.759,129.88Z"/><path class="cls-2" d="M494.8,81.529v15.31h10.466v3.286H494.8v30.1h-4.152v-30.1h-7.179V96.839h7.179V81.529Z"/><path class="cls-2" d="M517.85,129.794a11.24,11.24,0,0,1-4.974-3.46l1.9-2.682a12.934,12.934,0,0,0,4.152,2.9,12.16,12.16,0,0,0,5.017,1.081,9.686,9.686,0,0,0,5.536-1.514,5.283,5.283,0,0,0,2.249-4.714,5.161,5.161,0,0,0-1.211-3.589,7.719,7.719,0,0,0-2.768-1.99q-1.557-.648-5.017-1.773a16.676,16.676,0,0,1-6.271-3.5,7.49,7.49,0,0,1-2.206-5.665,8.5,8.5,0,0,1,2.9-6.7,10.78,10.78,0,0,1,7.395-2.551,13.86,13.86,0,0,1,10.12,3.806l-1.816,2.854a7.327,7.327,0,0,0-3.417-2.509,14.015,14.015,0,0,0-4.281-.865,8.248,8.248,0,0,0-4.714,1.428,5.031,5.031,0,0,0-.216,8.044,24.881,24.881,0,0,0,5.795,2.724,24.364,24.364,0,0,1,7.265,3.5,7.032,7.032,0,0,1,2.509,5.924,9.938,9.938,0,0,1-2.984,7.526q-2.985,2.853-8.607,2.854A18.373,18.373,0,0,1,517.85,129.794Z"/><path class="cls-1" d="M691.771.581V53.963a2.4,2.4,0,0,0,.7,1.694l50.3,50.3a2.394,2.394,0,0,1,0,3.386l-50.3,50.3a2.394,2.394,0,0,0-.7,1.693v53.383a.579.579,0,0,0,.989.409L799.83,108.06a.578.578,0,0,0,0-.819L692.76.171A.579.579,0,0,0,691.771.581Z"/><path class="cls-1" d="M691.771.581V53.963a2.4,2.4,0,0,0,.7,1.694l50.3,50.3a2.394,2.394,0,0,1,0,3.386l-50.3,50.3a2.394,2.394,0,0,0-.7,1.693v53.383a.579.579,0,0,0,.989.409L799.83,108.06a.578.578,0,0,0,0-.819L692.76.171A.579.579,0,0,0,691.771.581Z"/><path class="cls-2" d="M697.28,12.1V36.83c4.9-1.941,10.736-4.668,17.581-7.152Z"/><path class="cls-3" d="M735.437,50.254A55.365,55.365,0,0,1,722.4,47.087c-2.392-.893-15.657-9.927-15.657-9.927-.759-.243-4.248-3.309-9.465-4.1V53.117l8.919,8.92c7.782,3.25,9.557,2.137,14.584,5.305,9.523-1.941,25.335.436,35.457,3.715Z"/><path class="cls-4" d="M713.242,69.079q2.4-.618,4.882-1.17-2.48.528-4.9,1.154Z"/><path class="cls-5" d="M714.478,70.315c1.61-.415,18.479-6.266,19.371-6.448-10.791-6.9-21.807-5.748-28.459-2.64Z"/><path class="cls-1" d="M720.783,67.342"/><path class="cls-6" d="M769.056,83.872c-15.083-4.661-32.738-4.835-40.652.369l23.6,23.605s11.133,1.543,17.882,2.057c6.045.461,12.3,1.217,18.762,2.32l4.377-4.377Z"/><path class="cls-2" d="M773.07,105.846a48.685,48.685,0,0,0-21.062,2L719.294,140.56c9.641,3.292,20.084,6.981,30.83,10.191l38.528-38.528C783.012,108.069,779.083,106.616,773.07,105.846Z"/><path class="cls-3" d="M718.542,141.312l14.846-14.846s20.585-11.172,38.252,2.769l-24.409,24.409Z"/><path class="cls-6" d="M706.483,153.371l-9.2,9.2v25.741c5.411-2.117,10.737-4.267,15.822-6,2.659-.9,5.252-1.694,7.756-2.3l19.4-19.4C736.267,150.637,718.017,148.482,706.483,153.371Z"/><path class="cls-2" d="M712.482,171.546c-5.3.849-11.671,4-15.2,7.912V203.6L729.271,171.6C726.522,170.759,719.144,170.479,712.482,171.546Z"/><path class="cls-1" d="M714.861,29.678c-5.809-3.874-12.51-4.931-17.581-3.379V35.74a28.237,28.237,0,0,1,13.181,5.527c6.047,4.675,8.039,6.3,12.32,7.773a33.381,33.381,0,0,0,12.656,1.214Z"/><path class="cls-1" d="M732.275,148.653c-7.607-2.461-4.594-8.836-12.981-8.093l-12.811,12.811c2.089,7.051,15.257,9.109,33.773,7.248l9.868-9.868C750.124,146.45,735.207,149.6,732.275,148.653Z"/><path class="cls-5" d="M756.075,144.8l-12.616,12.616s-21.559,1.438-27.153-13.868l6.666-6.666S734.362,149.918,756.075,144.8Z"/><path class="cls-1" d="M755.878,70.694c-8.658-6.15-24.033-8.626-33.415-6.15-3.891,1.026-7.3,3.817-8.209,5.548L735.882,91.72c4.625-9.222,31.338-7.136,46.365,5.344Z"/><path class="cls-3" d="M697.28,203.6v-9.048s8.013,1.422,18.248-9.2Z"/></svg>