<?xml version="1.0" encoding="utf-8"?>
<!-- Generator: Adobe Illustrator 24.3.0, SVG Export Plug-In . SVG Version: 6.00 Build 0)  -->
<svg version="1.1" id="Layer_1" xmlns="http://www.w3.org/2000/svg" xmlns:xlink="http://www.w3.org/1999/xlink" x="0px" y="0px"
	 viewBox="0 0 189.7 202.1" style="enable-background:new 0 0 189.7 202.1;" xml:space="preserve">
<style type="text/css">
	.st0{fill:#7DF9FF;}
	.st1{fill:#F74902;}
	.st2{fill:#0C304A;}
</style>
<path class="st0" d="M12,168.4l126.5-165c2.9-3.8,8.4-4.5,12.2-1.6l25.7,19.7c3.8,2.9,4.5,8.4,1.6,12.2l-126.5,165
	c-2.9,3.8-8.4,4.5-12.2,1.6l-25.7-19.7C9.8,177.7,9.1,172.2,12,168.4z"/>
<path class="st1" d="M2.6,158L152,8.6c3.4-3.4,8.9-3.4,12.3,0l22.9,22.9c3.4,3.4,3.4,8.9,0,12.3L37.7,193.2c-3.4,3.4-8.9,3.4-12.3,0
	L2.6,170.3C-0.8,166.9-0.8,161.4,2.6,158z"/>
<path class="st2" d="M37.7,9l149.4,149.4c3.4,3.4,3.4,8.9,0,12.3l-22.9,22.9c-3.4,3.4-8.9,3.4-12.3,0L2.6,44.2
	c-3.4-3.4-3.4-8.9,0-12.3L25.4,9C28.8,5.6,34.3,5.6,37.7,9z"/>
</svg>
